<svg width="195" height="50" viewBox="0 0 195 50" fill="none" xmlns="http://www.w3.org/2000/svg">
<path d="M1.92 48C1.12667 48 0.73 47.65 0.73 46.95C0.73 46.67 0.8 46.3667 0.94 46.04L19.42 2.22C19.7 1.52 20.0033 1.05333 20.33 0.819998C20.6567 0.539999 21.1233 0.399999 21.73 0.399999H25.58C26.2333 0.399999 26.7 0.539999 26.98 0.819998C27.3067 1.05333 27.61 1.52 27.89 2.22L46.37 46.04C46.51 46.3667 46.58 46.67 46.58 46.95C46.58 47.65 46.1833 48 45.39 48H39.3C38.6933 48 38.25 47.93 37.97 47.79C37.7367 47.6033 37.5033 47.2533 37.27 46.74L33.28 36.94H13.96L10.04 46.74C9.80667 47.2533 9.55 47.6033 9.27 47.79C9.03667 47.93 8.61667 48 8.01 48H1.92ZM31.04 30.43L23.62 12.09L16.2 30.43H31.04ZM55.7946 48C54.8612 48 54.1846 47.79 53.7646 47.37C53.3446 46.95 53.1346 46.32 53.1346 45.48V16.29C53.1346 15.59 53.2512 15.1 53.4846 14.82C53.7179 14.54 54.2079 14.4 54.9546 14.4H58.9446C59.4579 14.4 59.8312 14.5167 60.0646 14.75C60.2979 14.9367 60.4379 15.2867 60.4846 15.8L60.6946 18.32C63.4479 15.0067 67.0646 13.35 71.5446 13.35C73.5979 13.35 75.1612 13.7 76.2346 14.4C76.5146 14.5867 76.6779 14.7967 76.7246 15.03C76.8179 15.2167 76.8179 15.45 76.7246 15.73L75.4646 19.93C75.3246 20.3967 75.0679 20.63 74.6946 20.63L74.1346 20.49C73.0146 19.9767 71.7312 19.72 70.2846 19.72C67.9046 19.72 65.9446 20.3967 64.4046 21.75C62.8646 23.0567 62.0946 24.8533 62.0946 27.14V45.48C62.0946 46.32 61.8846 46.95 61.4646 47.37C61.0912 47.79 60.4146 48 59.4346 48H55.7946ZM82.6923 48C81.899 48 81.339 47.86 81.0123 47.58C80.7323 47.2533 80.5923 46.7167 80.5923 45.97C80.5923 44.71 80.7323 43.7767 81.0123 43.17C81.2923 42.5633 81.9457 41.7233 82.9723 40.65L101.592 21.26H83.8823C82.949 21.26 82.2723 21.0733 81.8523 20.7C81.4323 20.3267 81.2223 19.6967 81.2223 18.81V16.78C81.2223 15.8933 81.4323 15.2867 81.8523 14.96C82.2723 14.5867 82.949 14.4 83.8823 14.4H110.832C111.579 14.4 112.092 14.5633 112.372 14.89C112.652 15.17 112.792 15.6833 112.792 16.43C112.792 17.69 112.629 18.67 112.302 19.37C112.022 20.0233 111.416 20.84 110.482 21.82L92.4223 41.21H110.832C111.766 41.21 112.442 41.42 112.862 41.84C113.282 42.2133 113.492 42.8433 113.492 43.73V45.62C113.492 46.46 113.282 47.0667 112.862 47.44C112.442 47.8133 111.766 48 110.832 48H82.6923ZM131.263 49.05C126.689 49.05 123.049 47.6733 120.343 44.92C117.636 42.12 116.283 38.2 116.283 33.16C116.283 29.24 117.146 25.7867 118.873 22.8C120.599 19.7667 123.049 17.4333 126.223 15.8C129.443 14.1667 133.176 13.35 137.423 13.35C143.349 13.35 148.366 14.75 152.473 17.55V46.11C152.473 46.81 152.309 47.3 151.983 47.58C151.703 47.86 151.189 48 150.443 48H146.593C146.079 48 145.683 47.9067 145.403 47.72C145.169 47.4867 145.006 47.1367 144.913 46.67L144.353 43.94C142.906 45.7133 141.109 47.02 138.963 47.86C136.863 48.6533 134.296 49.05 131.263 49.05ZM134.623 42.68C137.096 42.68 139.266 41.9567 141.133 40.51C143.046 39.0633 144.003 37.15 144.003 34.77V21.12C143.023 20.6067 142.019 20.2567 140.993 20.07C140.013 19.8367 138.799 19.72 137.353 19.72C133.666 19.72 130.703 20.8867 128.463 23.22C126.223 25.5533 125.103 28.7733 125.103 32.88C125.103 36.24 125.873 38.7133 127.413 40.3C128.999 41.8867 131.403 42.68 134.623 42.68ZM163.076 48C162.142 48 161.466 47.79 161.046 47.37C160.626 46.95 160.416 46.32 160.416 45.48V16.29C160.416 15.59 160.532 15.1 160.766 14.82C160.999 14.54 161.489 14.4 162.236 14.4H166.226C167.252 14.4 167.789 14.8667 167.836 15.8L167.976 18.6C171.149 15.1 175.699 13.35 181.626 13.35C185.406 13.35 188.439 14.3767 190.726 16.43C193.059 18.4367 194.226 21.47 194.226 25.53V45.48C194.226 46.32 194.016 46.95 193.596 47.37C193.222 47.79 192.569 48 191.636 48H187.926C186.992 48 186.316 47.79 185.896 47.37C185.476 46.95 185.266 46.32 185.266 45.48V26.09C185.266 23.8033 184.729 22.1933 183.656 21.26C182.629 20.28 180.949 19.79 178.616 19.79C176.142 19.79 173.972 20.4667 172.106 21.82C170.286 23.1267 169.376 24.83 169.376 26.93V45.48C169.376 46.32 169.166 46.95 168.746 47.37C168.372 47.79 167.696 48 166.716 48H163.076Z" fill="black"/>
</svg>
