<svg width="40" height="40" viewBox="0 0 40 40" fill="none" xmlns="http://www.w3.org/2000/svg">
<path d="M31.6667 0H8.33333C6.12401 0.00264643 4.00593 0.88147 2.4437 2.4437C0.88147 4.00593 0.00264643 6.12401 0 8.33333L0 10C0.000484679 10.7029 0.149168 11.3978 0.436348 12.0394C0.723529 12.6809 1.14275 13.2547 1.66667 13.7233V31.6667C1.66931 33.876 2.54814 35.9941 4.11037 37.5563C5.6726 39.1185 7.79067 39.9974 10 40H30C32.2093 39.9974 34.3274 39.1185 35.8896 37.5563C37.4519 35.9941 38.3307 33.876 38.3333 31.6667V13.7233C38.8572 13.2547 39.2765 12.6809 39.5637 12.0394C39.8508 11.3978 39.9995 10.7029 40 10V8.33333C39.9974 6.12401 39.1185 4.00593 37.5563 2.4437C35.9941 0.88147 33.876 0.00264643 31.6667 0V0ZM3.33333 8.33333C3.33333 7.00725 3.86012 5.73548 4.7978 4.7978C5.73548 3.86012 7.00725 3.33333 8.33333 3.33333H31.6667C32.9927 3.33333 34.2645 3.86012 35.2022 4.7978C36.1399 5.73548 36.6667 7.00725 36.6667 8.33333V10C36.6667 10.442 36.4911 10.8659 36.1785 11.1785C35.866 11.4911 35.442 11.6667 35 11.6667H5C4.55797 11.6667 4.13405 11.4911 3.82149 11.1785C3.50893 10.8659 3.33333 10.442 3.33333 10V8.33333ZM35 31.6667C35 32.9927 34.4732 34.2645 33.5355 35.2022C32.5979 36.1399 31.3261 36.6667 30 36.6667H10C8.67392 36.6667 7.40215 36.1399 6.46447 35.2022C5.52678 34.2645 5 32.9927 5 31.6667V15H35V31.6667Z" fill="white"/>
</svg>
