<svg width="59" height="59" viewBox="0 0 59 59" fill="none" xmlns="http://www.w3.org/2000/svg">
<path d="M43.6653 58.9999C23.6766 59.676 -12.333 23.9564 4.38609 4.58964L7.21317 2.13131C8.64422 0.747921 10.5624 -0.0163447 12.5527 0.0038987C14.543 0.0241421 16.4453 0.827267 17.8479 2.23948C17.9237 2.31668 17.9943 2.3988 18.0593 2.48531L22.4843 8.23535C23.8291 9.65832 24.5763 11.5432 24.5717 13.5011C24.5671 15.459 23.8111 17.3403 22.4597 18.757L19.613 22.3364C21.1891 26.1642 23.5056 29.643 26.4295 32.5733C29.3535 35.5036 32.8273 37.8276 36.6517 39.4119L40.2507 36.548C41.6858 35.2299 43.5626 34.4974 45.5111 34.4946C47.4596 34.4919 49.3385 35.2192 50.7772 36.5332L56.5297 40.9582C56.6157 41.023 56.6978 41.0928 56.7756 41.1672C58.1942 42.5989 58.9901 44.5329 58.9901 46.5485C58.9901 48.564 58.1942 50.498 56.7756 51.9298L54.536 54.511C53.1155 55.9471 51.4218 57.0841 49.5547 57.8551C47.6877 58.6261 45.6852 59.0153 43.6653 58.9999ZM12.4666 4.9166C12.1133 4.91633 11.7635 4.98566 11.437 5.12064C11.1105 5.25562 10.8138 5.4536 10.5639 5.70327L7.73433 8.1616C-6.1454 24.8488 36.3272 64.9565 50.937 51.1529L53.179 48.5692C53.4455 48.332 53.6625 48.0444 53.8173 47.723C53.9722 47.4016 54.0619 47.0527 54.0814 46.6965C54.1008 46.3402 54.0495 45.9836 53.9305 45.6473C53.8115 45.3109 53.6271 45.0015 53.388 44.7367L47.6674 40.3436C47.5798 40.2792 47.4976 40.2076 47.4216 40.1298C46.9087 39.641 46.2274 39.3684 45.5189 39.3684C44.8104 39.3684 44.129 39.641 43.6161 40.1298C43.5508 40.1959 43.4819 40.2582 43.4096 40.3166L38.5962 44.1516C38.2621 44.4176 37.8644 44.5919 37.4424 44.6574C37.0204 44.723 36.5886 44.6774 36.1895 44.5253C31.2338 42.6791 26.7328 39.7894 22.9915 36.0518C19.2501 32.3143 16.3558 27.8162 14.5046 22.8624C14.3407 22.4577 14.2876 22.0167 14.3506 21.5846C14.4137 21.1525 14.5907 20.7451 14.8635 20.4041L18.6837 15.5956C18.7406 15.5228 18.8022 15.4538 18.8681 15.3891C19.3703 14.8827 19.652 14.1983 19.652 13.4851C19.652 12.7719 19.3703 12.0876 18.8681 11.5811C18.7915 11.5047 18.7208 11.4225 18.6567 11.3353L14.2735 5.62214C13.7782 5.17465 13.1341 4.92752 12.4666 4.92889V4.9166ZM55.4702 30.9159C67.7373 12.8595 46.1285 -8.72715 28.0918 3.53748C27.8198 3.71908 27.5867 3.95313 27.4063 4.22592C27.2259 4.49872 27.1018 4.80477 27.0411 5.12615C26.9805 5.44753 26.9846 5.77778 27.0531 6.09756C27.1217 6.41734 27.2534 6.72022 27.4406 6.98846C27.6277 7.2567 27.8664 7.4849 28.1428 7.65971C28.4193 7.83452 28.7278 7.95241 29.0503 8.00649C29.3729 8.06057 29.703 8.04974 30.0213 7.97465C30.3396 7.89955 30.6397 7.76169 30.9041 7.56914C44.361 -1.67173 60.6745 14.659 51.4385 28.1061C51.2418 28.3702 51.1002 28.6712 51.0221 28.9911C50.9439 29.311 50.9309 29.6434 50.9836 29.9685C51.0364 30.2936 51.154 30.6047 51.3294 30.8835C51.5048 31.1622 51.7344 31.4029 52.0046 31.5912C52.2747 31.7795 52.58 31.9116 52.9022 31.9797C53.2245 32.0477 53.5571 32.0503 53.8803 31.9873C54.2036 31.9244 54.5109 31.7971 54.784 31.613C55.0571 31.429 55.2905 31.1919 55.4702 30.9159ZM45.986 26.3311C46.4468 25.8701 46.7057 25.245 46.7057 24.5931C46.7057 23.9412 46.4468 23.3161 45.986 22.8551L41.792 18.6587V12.2916C41.792 11.6396 41.533 11.0143 41.072 10.5533C40.611 10.0923 39.9857 9.83327 39.3337 9.83327C38.6817 9.83327 38.0564 10.0923 37.5954 10.5533C37.1344 11.0143 36.8754 11.6396 36.8754 12.2916V19.6666C36.8755 20.3185 37.1346 20.9437 37.5957 21.4046L42.5123 26.3213C42.9733 26.7822 43.5985 27.0411 44.2504 27.0411C44.9022 27.0411 45.5274 26.7822 45.9884 26.3213L45.986 26.3311Z" fill="url(#paint0_linear_2329_36)"/>
<defs>
<linearGradient id="paint0_linear_2329_36" x1="29.5741" y1="-0.0595703" x2="27.14" y2="42.1212" gradientUnits="userSpaceOnUse">
<stop stop-color="#1D823B"/>
<stop offset="0.0001" stop-color="#2D8346"/>
<stop offset="1" stop-color="#03C93E"/>
</linearGradient>
</defs>
</svg>
