<svg width="40" height="37" viewBox="0 0 40 37" fill="none" xmlns="http://www.w3.org/2000/svg">
<path d="M6.66651 9.99993C6.00943 10.0017 5.35853 9.87306 4.75147 9.6216C4.14441 9.37013 3.59323 9.00079 3.12984 8.53493L0.556508 6.24493C0.226313 5.95054 0.0265889 5.53704 0.00127152 5.09539C-0.0240459 4.65374 0.127118 4.22012 0.421508 3.88993C0.715898 3.55973 1.1294 3.36001 1.57105 3.33469C2.0127 3.30937 2.44631 3.46054 2.77651 3.75493L5.41817 6.1116C5.5694 6.28142 5.75378 6.41851 5.95997 6.51441C6.16616 6.61031 6.38979 6.66301 6.6171 6.66926C6.84442 6.6755 7.07061 6.63516 7.28175 6.55072C7.49289 6.46628 7.68452 6.33953 7.84484 6.17826L13.8515 0.459928C14.1745 0.172379 14.5966 0.0216269 15.0287 0.0395136C15.4608 0.0574003 15.869 0.242525 16.1671 0.555787C16.4652 0.869049 16.6299 1.28592 16.6264 1.71835C16.6228 2.15078 16.4514 2.5649 16.1482 2.87326L10.1665 8.56326C9.70613 9.02096 9.16005 9.38343 8.55949 9.62994C7.95894 9.87645 7.31569 10.0022 6.66651 9.99993ZM39.9998 6.6666C39.9998 6.22457 39.8242 5.80065 39.5117 5.48808C39.1991 5.17552 38.7752 4.99993 38.3332 4.99993H21.6665C21.2245 4.99993 20.8006 5.17552 20.488 5.48808C20.1754 5.80065 19.9998 6.22457 19.9998 6.6666C19.9998 7.10862 20.1754 7.53255 20.488 7.84511C20.8006 8.15767 21.2245 8.33326 21.6665 8.33326H38.3332C38.7752 8.33326 39.1991 8.15767 39.5117 7.84511C39.8242 7.53255 39.9998 7.10862 39.9998 6.6666ZM10.1665 21.8966L16.1482 16.2066C16.3151 16.058 16.4505 15.8773 16.5462 15.6753C16.6419 15.4732 16.6959 15.254 16.7052 15.0307C16.7144 14.8074 16.6787 14.5845 16.6 14.3752C16.5213 14.166 16.4014 13.9747 16.2473 13.8128C16.0932 13.6509 15.9081 13.5216 15.703 13.4327C15.4979 13.3438 15.2771 13.297 15.0535 13.2952C14.83 13.2933 14.6084 13.3365 14.4019 13.4221C14.1954 13.5076 14.0082 13.6339 13.8515 13.7933L7.85151 19.5116C7.53423 19.815 7.11216 19.9843 6.67318 19.9843C6.23419 19.9843 5.81212 19.815 5.49484 19.5116L2.84484 16.8699C2.5305 16.5663 2.1095 16.3983 1.67251 16.4021C1.23551 16.4059 0.817491 16.5812 0.508477 16.8902C0.199464 17.1992 0.024182 17.6173 0.0203846 18.0543C0.0165872 18.4913 0.184578 18.9123 0.488175 19.2266L3.12984 21.8683C4.06263 22.8013 5.32637 23.3278 6.64567 23.3331C7.96498 23.3384 9.23291 22.8221 10.1732 21.8966H10.1665ZM39.9998 19.9999C39.9998 19.5579 39.8242 19.134 39.5117 18.8214C39.1991 18.5089 38.7752 18.3333 38.3332 18.3333H21.6665C21.2245 18.3333 20.8006 18.5089 20.488 18.8214C20.1754 19.134 19.9998 19.5579 19.9998 19.9999C19.9998 20.442 20.1754 20.8659 20.488 21.1784C20.8006 21.491 21.2245 21.6666 21.6665 21.6666H38.3332C38.7752 21.6666 39.1991 21.491 39.5117 21.1784C39.8242 20.8659 39.9998 20.442 39.9998 19.9999ZM10.1665 35.2299L16.1415 29.5399C16.3085 29.3913 16.4438 29.2106 16.5395 29.0086C16.6352 28.8066 16.6893 28.5874 16.6985 28.364C16.7078 28.1407 16.672 27.9178 16.5933 27.7086C16.5147 27.4993 16.3947 27.3081 16.2406 27.1461C16.0865 26.9842 15.9014 26.8549 15.6963 26.766C15.4913 26.6771 15.2704 26.6303 15.0469 26.6285C14.8233 26.6267 14.6017 26.6698 14.3952 26.7554C14.1887 26.841 14.0016 26.9672 13.8448 27.1266L7.84484 32.8449C7.68452 33.0062 7.49289 33.133 7.28175 33.2174C7.07061 33.3018 6.84442 33.3422 6.6171 33.3359C6.38979 33.3297 6.16616 33.277 5.95997 33.1811C5.75378 33.0852 5.5694 32.9481 5.41817 32.7783L2.77651 30.4216C2.44631 30.1272 2.0127 29.976 1.57105 30.0014C1.1294 30.0267 0.715898 30.2264 0.421508 30.5566C0.127118 30.8868 -0.0240459 31.3204 0.00127152 31.7621C0.0265889 32.2037 0.226313 32.6172 0.556508 32.9116L3.12984 35.2016C4.06263 36.1346 5.32637 36.6611 6.64567 36.6664C7.96498 36.6717 9.23291 36.1554 10.1732 35.2299H10.1665ZM39.9998 33.3333C39.9998 32.8912 39.8242 32.4673 39.5117 32.1548C39.1991 31.8422 38.7752 31.6666 38.3332 31.6666H21.6665C21.2245 31.6666 20.8006 31.8422 20.488 32.1548C20.1754 32.4673 19.9998 32.8912 19.9998 33.3333C19.9998 33.7753 20.1754 34.1992 20.488 34.5118C20.8006 34.8243 21.2245 34.9999 21.6665 34.9999H38.3332C38.7752 34.9999 39.1991 34.8243 39.5117 34.5118C39.8242 34.1992 39.9998 33.7753 39.9998 33.3333Z" fill="#374957"/>
</svg>
